<svg width="16px" height="16px" viewBox="0 0 16 16" version="1.1" xmlns="http://www.w3.org/2000/svg" xmlns:xlink="http://www.w3.org/1999/xlink">
    <title>FC620A46-D483-4848-B931-230C1E34515A</title>
    <g id="logged-in---desktop" stroke="none" stroke-width="1" fill="none" fill-rule="evenodd">
        <g id="D/job_detail_page" transform="translate(-1205.000000, -224.000000)" fill="#FFFFFF" fill-rule="nonzero">
            <g id="Group-5" transform="translate(408.000000, 222.000000)">
                <g id="Group" transform="translate(797.000000, 0.000000)">
                    <g id="clock" transform="translate(0.000000, 2.000000)">
                        <path d="M8,0 C3.58064516,0 0,3.58064516 0,8 C0,12.4193548 3.58064516,16 8,16 C12.4193548,16 16,12.4193548 16,8 C16,3.58064516 12.4193548,0 8,0 Z M14.9677419,8 C14.9677419,11.8290323 11.8677419,14.9677419 8,14.9677419 C4.17096774,14.9677419 1.03225806,11.8677419 1.03225806,8 C1.03225806,4.17096774 4.13225806,1.03225806 8,1.03225806 C11.8290323,1.03225806 14.9677419,4.13225806 14.9677419,8 Z M10.1645161,10.8483871 L7.54516129,8.94516129 C7.44516129,8.87096774 7.38709677,8.75483871 7.38709677,8.63225806 L7.38709677,3.48387097 C7.38709677,3.27096774 7.56129032,3.09677419 7.77419355,3.09677419 L8.22580645,3.09677419 C8.43870968,3.09677419 8.61290323,3.27096774 8.61290323,3.48387097 L8.61290323,8.20322581 L10.8870968,9.85806452 C11.0612903,9.98387097 11.0967742,10.2258065 10.9709677,10.4 L10.7064516,10.7645161 C10.5806452,10.9354839 10.3387097,10.9741935 10.1645161,10.8483871 L10.1645161,10.8483871 Z" id="Shape"></path>
                    </g>
                </g>
            </g>
        </g>
    </g>
</svg>